<?xml version="1.0" standalone="no"?>
<!DOCTYPE svg PUBLIC "-//W3C//DTD SVG 20010904//EN"
 "http://www.w3.org/TR/2001/REC-SVG-20010904/DTD/svg10.dtd">
<svg version="1.0" xmlns="http://www.w3.org/2000/svg"
 width="700.000000pt" height="700.000000pt" viewBox="0 0 700.000000 700.000000"
 preserveAspectRatio="xMidYMid meet">
<metadata>
Created by potrace 1.14, written by Peter Selinger 2001-2017
</metadata>
<g transform="translate(0.000000,700.000000) scale(0.100000,-0.100000)"
fill="#000000" stroke="none">
<path d="M1355 6393 c-22 -2 -80 -10 -129 -19 -562 -94 -903 -433 -1013 -1007
-17 -85 -18 -191 -18 -1492 0 -1540 -3 -1451 61 -1672 128 -443 445 -726 921
-823 172 -34 352 -40 1354 -40 l967 0 528 -471 c617 -549 674 -597 773 -647
70 -35 81 -37 165 -37 71 1 101 5 137 22 87 39 154 127 179 235 5 25 10 225
10 471 l0 427 73 0 c241 1 481 34 651 91 362 121 621 394 730 771 64 220 60
132 64 1613 3 1491 3 1490 -59 1713 -131 465 -448 743 -969 849 -79 16 -245
17 -2235 18 -1182 1 -2168 0 -2190 -2z m4311 -498 c308 -53 499 -200 591 -456
65 -178 63 -140 63 -1563 0 -1384 0 -1381 -51 -1536 -38 -118 -88 -199 -174
-286 -111 -113 -230 -169 -435 -206 -30 -5 -201 -13 -380 -16 -363 -8 -367 -9
-413 -82 -22 -35 -22 -41 -25 -524 l-3 -490 -507 506 c-488 487 -548 541 -634
571 -24 8 -342 13 -1173 17 -1103 6 -1143 7 -1230 27 -191 44 -312 108 -414
219 -97 106 -166 265 -190 438 -7 52 -11 496 -11 1365 0 1140 2 1298 16 1382
51 299 204 496 456 587 176 63 48 60 2339 61 1828 1 2097 -1 2175 -14z"/>
<path d="M2468 5489 c-176 -22 -376 -89 -522 -177 -100 -59 -244 -198 -280
-269 l-26 -52 0 -1250 c0 -853 3 -1266 11 -1300 13 -62 40 -98 93 -122 49 -22
133 -24 180 -5 19 8 69 39 112 69 197 137 349 181 619 180 261 0 436 -49 614
-171 115 -79 146 -91 231 -91 75 -1 117 16 253 102 155 98 322 149 530 162
112 7 275 -6 371 -31 87 -22 215 -84 308 -150 44 -31 95 -62 114 -70 47 -19
131 -17 180 5 53 24 80 60 93 122 8 34 11 447 11 1300 l0 1250 -26 52 c-39 76
-179 210 -288 274 -326 192 -761 235 -1130 111 -156 -52 -280 -122 -368 -207
l-48 -45 -47 45 c-121 116 -326 212 -545 254 -101 20 -336 27 -440 14z m469
-303 c171 -47 322 -134 384 -218 l29 -41 0 -1139 c0 -626 -3 -1138 -6 -1138
-3 0 -19 9 -35 21 -48 34 -189 96 -269 118 -342 95 -767 53 -1021 -100 l-79
-47 0 1146 0 1147 73 70 c106 102 255 171 446 205 25 5 123 7 216 5 145 -2
183 -7 262 -29z m1626 19 c180 -31 340 -109 440 -213 l57 -61 0 -1144 0 -1145
-79 47 c-101 61 -264 115 -411 137 -212 31 -484 8 -670 -56 -72 -25 -170 -72
-212 -101 -14 -11 -29 -19 -32 -19 -3 0 -6 512 -6 1138 l0 1137 26 38 c70 103
288 212 493 247 81 14 304 11 394 -5z"/>
<path d="M4337 4892 c-14 -15 -17 -40 -17 -120 0 -97 1 -102 25 -118 23 -15
27 -15 50 0 24 16 25 20 25 126 0 98 -2 110 -19 120 -28 15 -46 12 -64 -8z"/>
<path d="M3922 4734 c-36 -25 -27 -54 44 -131 53 -59 71 -73 95 -73 39 0 59
38 39 75 -15 28 -133 145 -147 145 -5 0 -19 -7 -31 -16z"/>
<path d="M4694 4658 c-47 -46 -74 -79 -74 -93 0 -26 29 -55 54 -55 23 0 166
141 166 163 0 21 -35 57 -56 57 -9 0 -49 -32 -90 -72z"/>
<path d="M3743 4315 c-29 -21 -29 -59 -1 -79 28 -20 196 -23 220 -3 24 19 28
44 10 66 -24 28 -196 40 -229 16z"/>
<path d="M4142 4304 c-24 -17 -29 -56 -9 -72 6 -5 107 -13 223 -17 207 -7 213
-6 233 14 26 26 27 43 4 63 -27 23 -421 34 -451 12z"/>
<path d="M4757 4292 c-22 -24 -21 -45 1 -65 12 -11 44 -16 115 -19 94 -3 100
-2 118 21 24 29 24 36 -1 61 -17 17 -33 20 -118 20 -83 0 -102 -3 -115 -18z"/>
</g>
</svg>
